<?xml version="1.0" encoding="utf-8"?>
<!-- Generator: Adobe Illustrator 22.0.1, SVG Export Plug-In . SVG Version: 6.00 Build 0)  -->
<svg version="1.1" id="Layer_1" xmlns="http://www.w3.org/2000/svg" xmlns:xlink="http://www.w3.org/1999/xlink" x="0px" y="0px"
	 viewBox="0 0 600 200" style="enable-background:new 0 0 600 200;" xml:space="preserve">
<style type="text/css">
	.st0{fill:#2B2931;}
	.st1{fill:#00B0FF;}
	.st2{fill:#FFFFFF;}
</style>
<g>
	<path class="st0" d="M477.2,188.3c11.6,0,20.8-9.3,20.8-20.6c0-11.3-9.3-20.6-20.8-20.6c-11.1,0-20.4,9.3-20.4,20.6
		C456.8,179.1,466,188.3,477.2,188.3z"/>
	<g>
		<path class="st0" d="M113.3,127.2c0,19.5-12.5,28.7-25.9,28.7c-13.2,0-25.9-9.5-25.9-28.7h0V31.9H26.2v95.3
			c0,35.7,26.9,61.1,61.1,61.1c34.5,0,61.1-25.5,61.1-61.1V31.9h-35.2V127.2z"/>
		<path class="st0" d="M224,113.3l-15.3-3c-5.1-0.9-9-3.7-9-8.6c0-6,5.8-10,12.5-10c10.7,0,15.5,6.5,16.4,14.1l29.2-5.3
			c-1.2-13.4-12.7-34.3-46.1-34.3c-25.7,0-44.2,17.1-44.2,38.2c0,9.3,3.2,17.9,10.6,24.5c5.5,4.9,13.2,8.7,23.6,11l13.2,3
			c8.6,1.9,11.3,5.3,11.3,9.5c0,5.1-4.4,10-13.4,10c-12,0-17.6-7.6-18.1-15.5l-29.9,5.3c0.9,12.7,12.5,36.1,48.6,36.1
			c30.8,0,45.9-19.2,45.9-38.9c0-7.5-2.3-14.6-7-20.5C246.7,121.6,237.2,116,224,113.3z"/>
		<polygon class="st0" points="277.6,128.9 277.6,184.8 312.8,184.8 312.8,128.9 312.8,69.7 277.6,69.7 		"/>
		<path class="st0" d="M295,55.1c11.6,0,20.8-9.3,20.8-20.6c0-11.3-9.3-20.6-20.8-20.6c-11.1,0-20.4,9.3-20.4,20.6
			C274.6,45.9,283.9,55.1,295,55.1z"/>
	</g>
</g>
<circle class="st1" cx="391.7" cy="127.2" r="60.9"/>
<path class="st2" d="M382.6,119.6c-4.2,5-3.6,12.6,1.5,16.8c5,4.2,12.6,3.6,16.8-1.5c4.2-5,19-41.2,19-41.2S386.8,114.5,382.6,119.6
	z M391.7,131.7c-2.5,0-4.5-2-4.5-4.5c0-2.5,2-4.5,4.5-4.5c2.5,0,4.5,2,4.5,4.5C396.2,129.7,394.2,131.7,391.7,131.7z"/>
</svg>
